<svg xmlns="http://www.w3.org/2000/svg" viewBox="0 0 200.17 896.61"><defs><style>.cls-1{fill:#fe7f28;}.cls-2{fill:#fff;}</style></defs><g id="Capa_2" data-name="Capa 2"><g id="Capa_1-2" data-name="Capa 1"><polygon class="cls-1" points="1.07 259.84 100.09 208.27 100.09 894.84 1.07 843.27 1.07 259.84"/><path class="cls-2" d="M101.16,896.61,0,843.93V259.18L101.16,206.5Zm-99-54L99,893.07V210L2.15,260.49Z"/><polygon class="cls-1" points="22.93 175.71 100.09 125.88 100.09 180.8 22.93 224.21 22.93 175.71"/><path class="cls-2" d="M21.85,226V175.12l79.31-51.22v57.53ZM24,176.29v46.08l75-42.19V127.85Z"/><polygon class="cls-1" points="46.56 97.37 100.09 57.22 100.09 98.42 46.56 135.22 46.56 97.37"/><path class="cls-2" d="M45.49,137.26V96.83l55.67-41.76V99ZM47.64,97.9v35.27L99,97.85V59.37Z"/><polygon class="cls-1" points="72.19 25.54 100.09 2.29 100.09 29.76 72.19 51.84 72.19 25.54"/><path class="cls-2" d="M71.12,54.06V25l30-25V30.28Zm2.15-28V49.62L99,29.24V4.59Z"/><polygon points="199.1 259.84 100.09 208.27 100.09 894.84 199.1 843.27 199.1 259.84"/><path class="cls-2" d="M99,896.61V206.5l101.16,52.68V843.93ZM101.16,210v683L198,842.62V260.49Z"/><polygon points="177.57 175.92 100.51 126.15 100.51 181.04 177.57 224.39 177.57 175.92"/><path class="cls-2" d="M178.65,226.23,99.43,181.67V124.18l79.22,51.16Zm-77.07-45.82,74.92,42.14v-46l-74.92-48.39Z"/><polygon points="153.97 97.63 100.51 57.54 100.51 98.7 153.97 135.46 153.97 97.63"/><path class="cls-2" d="M155,137.5,99.43,99.27V55.39L155,97.09ZM101.58,98.14l51.31,35.27V98.17L101.58,59.69Z"/><polygon points="128.75 25.58 100.93 2.37 100.93 29.79 128.75 51.85 128.75 25.58"/><path class="cls-2" d="M129.83,54.07l-30-23.76V.07l30,25ZM102,29.27l25.68,20.36V26.08L102,4.66Z"/></g></g></svg>